<?xml version="1.0" encoding="UTF-8" standalone="no"?>
<!DOCTYPE svg PUBLIC "-//W3C//DTD SVG 1.1//EN"
 "http://www.w3.org/Graphics/SVG/1.1/DTD/svg11.dtd">
<!-- Generated by graphviz version 12.2.1 (20241206.2353)
 -->
<!-- Title: ChenER Pages: 1 -->
<svg width="3066pt" height="4583pt"
 viewBox="36.00 36.00 1067.75 1613.98" xmlns="http://www.w3.org/2000/svg" xmlns:xlink="http://www.w3.org/1999/xlink">
<g id="graph0" class="graph" transform="scale(2.77778 2.77778) rotate(0) translate(40 1609.98)">
<title>ChenER</title>
<polygon fill="white" stroke="none" points="-4,4 -4,-1573.98 1027.75,-1573.98 1027.75,4 -4,4"/>
<!-- ENT_users&#45;&gt;REL_manages -->
<g id="edge1" class="edge">
<title>ENT_users&#45;&gt;REL_manages</title>
<path fill="none" stroke="#0d1f3c" stroke-width="2" d="M192.49,-930.7C241.21,-865.6 382.93,-676.22 382.93,-676.22 382.93,-676.22 438.21,-631 438.21,-631 438.21,-631 457.67,-602.05 457.67,-602.05 457.67,-602.05 482.86,-534.16 482.86,-534.16 482.86,-534.16 496.44,-515.74 509.24,-498.36"/>
<polygon fill="#0d1f3c" stroke="#0d1f3c" stroke-width="2" points="511.04,-500.04 513.22,-492.95 507.1,-497.14 511.04,-500.04"/>
<text text-anchor="middle" x="198.63" y="-897.84" font-family="Arial" font-size="10.00">1</text>
</g>
<!-- ENT_users&#45;&gt;REL_posts -->
<g id="edge9" class="edge">
<title>ENT_users&#45;&gt;REL_posts</title>
<path fill="none" stroke="#0d1f3c" stroke-width="2" d="M205.92,-974.39C218.07,-983.41 232.15,-993.86 244.48,-1003.02"/>
<polygon fill="#0d1f3c" stroke="#0d1f3c" stroke-width="2" points="242.79,-1004.82 249.87,-1007.02 245.71,-1000.88 242.79,-1004.82"/>
</g>
<!-- ENT_users&#45;&gt;ATTR_user_id -->
<g id="edge13" class="edge">
<title>ENT_users&#45;&gt;ATTR_user_id</title>
<path fill="none" stroke="#999999" d="M171.87,-974.38C168.93,-989.09 165.16,-1007.93 162.71,-1020.2"/>
</g>
<!-- ENT_users&#45;&gt;ATTR_fullname -->
<g id="edge14" class="edge">
<title>ENT_users&#45;&gt;ATTR_fullname</title>
<path fill="none" stroke="#999999" d="M187.01,-974.32C204.28,-1009.62 236.32,-1075.12 236.32,-1075.12 236.32,-1075.12 236.32,-1125.72 236.32,-1125.72 236.32,-1125.72 212.68,-1135.79 193.3,-1144.05"/>
</g>
<!-- ENT_users&#45;&gt;ATTR_email -->
<g id="edge15" class="edge">
<title>ENT_users&#45;&gt;ATTR_email</title>
<path fill="none" stroke="#999999" d="M187.01,-974.32C204.28,-1009.62 236.32,-1075.12 236.32,-1075.12 236.32,-1075.12 249.17,-1159.95 254.19,-1193.09"/>
</g>
<!-- ENT_users&#45;&gt;ATTR_password -->
<g id="edge16" class="edge">
<title>ENT_users&#45;&gt;ATTR_password</title>
<path fill="none" stroke="#999999" d="M158.47,-974.38C139.19,-998.22 111.13,-1032.89 111.13,-1032.89 111.13,-1032.89 64.11,-1151.46 48.31,-1191.29"/>
</g>
<!-- ENT_users&#45;&gt;ATTR_role -->
<g id="edge17" class="edge">
<title>ENT_users&#45;&gt;ATTR_role</title>
<path fill="none" stroke="#999999" d="M158.47,-974.38C139.19,-998.22 111.13,-1032.89 111.13,-1032.89 111.13,-1032.89 99.32,-1075.12 99.32,-1075.12 99.32,-1075.12 99.32,-1125.72 99.32,-1125.72 99.32,-1125.72 130.67,-1194.2 143.89,-1223.08"/>
</g>
<!-- ENT_users&#45;&gt;ATTR_phone -->
<g id="edge18" class="edge">
<title>ENT_users&#45;&gt;ATTR_phone</title>
<path fill="none" stroke="#999999" d="M189.1,-974.3C202.46,-997.14 221.46,-1029.62 221.46,-1029.62 221.46,-1029.62 283.58,-1097.12 309.79,-1125.6"/>
</g>
<!-- ENT_users&#45;&gt;ATTR_created_at_u -->
<g id="edge19" class="edge">
<title>ENT_users&#45;&gt;ATTR_created_at_u</title>
<path fill="none" stroke="#999999" d="M139.68,-974.35C114.83,-989.27 82.97,-1008.4 62.92,-1020.44"/>
</g>
<!-- ENT_features&#45;&gt;ATTR_features_id -->
<g id="edge20" class="edge">
<title>ENT_features&#45;&gt;ATTR_features_id</title>
<path fill="none" stroke="#999999" d="M557.13,-708.57C554.3,-676.75 549.15,-618.73 546.86,-592.88"/>
</g>
<!-- ENT_features&#45;&gt;ATTR_fname -->
<g id="edge21" class="edge">
<title>ENT_features&#45;&gt;ATTR_fname</title>
<path fill="none" stroke="#999999" d="M582.74,-708.6C608.24,-685.05 647.93,-648.39 668.48,-629.4"/>
</g>
<!-- ENT_features&#45;&gt;ATTR_desc -->
<g id="edge22" class="edge">
<title>ENT_features&#45;&gt;ATTR_desc</title>
<path fill="none" stroke="#999999" d="M507.37,-708.41C489.91,-700.95 471.22,-692.97 456.81,-686.83"/>
</g>
<!-- ENT_features&#45;&gt;ATTR_facilities -->
<g id="edge23" class="edge">
<title>ENT_features&#45;&gt;ATTR_facilities</title>
<path fill="none" stroke="#999999" d="M571.57,-708.6C590.41,-675.65 623.91,-617.06 623.91,-617.06 623.91,-617.06 669.02,-584.8 694.4,-566.65"/>
</g>
<!-- ENT_features&#45;&gt;ATTR_fuser -->
<g id="edge24" class="edge">
<title>ENT_features&#45;&gt;ATTR_fuser</title>
<path fill="none" stroke="#999999" d="M528.03,-708.48C501.18,-689.45 466.63,-664.97 466.63,-664.97 466.63,-664.97 436.38,-651.7 413.68,-641.75"/>
</g>
<!-- ENT_features&#45;&gt;ATTR_image -->
<g id="edge25" class="edge">
<title>ENT_features&#45;&gt;ATTR_image</title>
<path fill="none" stroke="#999999" d="M548.2,-708.57C527.48,-666.8 484.34,-579.86 484.34,-579.86 484.34,-579.86 504.82,-560.18 518.9,-546.65"/>
</g>
<!-- ENT_features&#45;&gt;ATTR_created_at_f -->
<g id="edge26" class="edge">
<title>ENT_features&#45;&gt;ATTR_created_at_f</title>
<path fill="none" stroke="#999999" d="M566.77,-708.71C584.69,-658.08 628.74,-533.62 643.03,-493.23"/>
</g>
<!-- ENT_product&#45;&gt;ATTR_product_id -->
<g id="edge27" class="edge">
<title>ENT_product&#45;&gt;ATTR_product_id</title>
<path fill="none" stroke="#999999" d="M881.95,-978.73C877.98,-997.65 872.35,-1024.41 869.05,-1040.09"/>
</g>
<!-- ENT_product&#45;&gt;ATTR_pname -->
<g id="edge28" class="edge">
<title>ENT_product&#45;&gt;ATTR_pname</title>
<path fill="none" stroke="#999999" d="M894.97,-978.73C905.94,-1007.05 923.71,-1052.95 923.71,-1052.95 923.71,-1052.95 900.21,-1111.92 889.57,-1138.64"/>
</g>
<!-- ENT_product&#45;&gt;ATTR_pdesc -->
<g id="edge29" class="edge">
<title>ENT_product&#45;&gt;ATTR_pdesc</title>
<path fill="none" stroke="#999999" d="M894.97,-978.73C905.94,-1007.05 923.71,-1052.95 923.71,-1052.95 923.71,-1052.95 960.96,-1154.65 974.35,-1191.2"/>
</g>
<!-- ENT_product&#45;&gt;ATTR_price -->
<g id="edge30" class="edge">
<title>ENT_product&#45;&gt;ATTR_price</title>
<path fill="none" stroke="#999999" d="M868.94,-978.73C846.06,-1007.05 808.99,-1052.95 808.99,-1052.95 808.99,-1052.95 808.92,-1152.68 808.89,-1188.91"/>
</g>
<!-- ENT_product&#45;&gt;ATTR_quantity -->
<g id="edge31" class="edge">
<title>ENT_product&#45;&gt;ATTR_quantity</title>
<path fill="none" stroke="#999999" d="M894.97,-978.73C905.94,-1007.05 923.71,-1052.95 923.71,-1052.95 923.71,-1052.95 938.36,-1151.53 938.36,-1151.53 938.36,-1151.53 908.7,-1215.11 895.72,-1242.92"/>
</g>
<!-- ENT_product&#45;&gt;ATTR_created_at_p -->
<g id="edge32" class="edge">
<title>ENT_product&#45;&gt;ATTR_created_at_p</title>
<path fill="none" stroke="#999999" d="M908.34,-978.97C927,-997.81 953.18,-1024.25 968.35,-1039.57"/>
</g>
<!-- ENT_student&#45;&gt;REL_belongs -->
<g id="edge3" class="edge">
<title>ENT_student&#45;&gt;REL_belongs</title>
<path fill="none" stroke="#0d1f3c" stroke-width="2" d="M400.99,-1281.11C413.41,-1297.45 430.49,-1319.92 444.14,-1337.88"/>
<polygon fill="#0d1f3c" stroke="#0d1f3c" stroke-width="2" points="442.12,-1339.28 448.31,-1343.37 446.02,-1336.32 442.12,-1339.28"/>
</g>
<!-- ENT_student&#45;&gt;ATTR_stu_id -->
<g id="edge33" class="edge">
<title>ENT_student&#45;&gt;ATTR_stu_id</title>
<path fill="none" stroke="#999999" d="M375.44,-1281.14C369.71,-1295.38 362.45,-1313.43 357.65,-1325.35"/>
</g>
<!-- ENT_student&#45;&gt;ATTR_first -->
<g id="edge34" class="edge">
<title>ENT_student&#45;&gt;ATTR_first</title>
<path fill="none" stroke="#999999" d="M361.78,-1281.14C337.87,-1304.51 303.48,-1338.13 303.48,-1338.13 303.48,-1338.13 282.98,-1360.5 269.52,-1375.17"/>
</g>
<!-- ENT_student&#45;&gt;ATTR_last -->
<g id="edge35" class="edge">
<title>ENT_student&#45;&gt;ATTR_last</title>
<path fill="none" stroke="#999999" d="M389.1,-1281.14C394.2,-1304.51 401.55,-1338.13 401.55,-1338.13 401.55,-1338.13 366.52,-1405.29 351.48,-1434.15"/>
</g>
<!-- ENT_class&#45;&gt;REL_uses -->
<g id="edge11" class="edge">
<title>ENT_class&#45;&gt;REL_uses</title>
<path fill="none" stroke="#0d1f3c" stroke-width="2" d="M519.73,-1441.91C534.46,-1424.57 555.12,-1400.24 571.14,-1381.38"/>
<polygon fill="#0d1f3c" stroke="#0d1f3c" stroke-width="2" points="572.85,-1383.15 575.51,-1376.23 569.11,-1379.98 572.85,-1383.15"/>
</g>
<!-- ENT_class&#45;&gt;ATTR_class_id -->
<g id="edge36" class="edge">
<title>ENT_class&#45;&gt;ATTR_class_id</title>
<path fill="none" stroke="#999999" d="M566.03,-1485.33C578.1,-1489.32 590.13,-1493.29 600.41,-1496.69"/>
</g>
<!-- ENT_class&#45;&gt;ATTR_classroom -->
<g id="edge37" class="edge">
<title>ENT_class&#45;&gt;ATTR_classroom</title>
<path fill="none" stroke="#999999" d="M505.21,-1485.55C508.67,-1503.79 513.5,-1529.25 516.39,-1544.45"/>
</g>
<!-- ENT_subject&#45;&gt;REL_covers -->
<g id="edge7" class="edge">
<title>ENT_subject&#45;&gt;REL_covers</title>
<path fill="none" stroke="#0d1f3c" stroke-width="2" d="M683.65,-1223.86C691.09,-1167.04 711.14,-1014 720.74,-940.74"/>
<polygon fill="#0d1f3c" stroke="#0d1f3c" stroke-width="2" points="723.15,-941.21 721.63,-933.95 718.29,-940.57 723.15,-941.21"/>
</g>
<!-- ENT_subject&#45;&gt;ATTR_subj_id -->
<g id="edge38" class="edge">
<title>ENT_subject&#45;&gt;ATTR_subj_id</title>
<path fill="none" stroke="#999999" d="M713.14,-1267.81C734.62,-1282.48 761.98,-1301.16 779.48,-1313.12"/>
</g>
<!-- ENT_subject&#45;&gt;ATTR_title -->
<g id="edge39" class="edge">
<title>ENT_subject&#45;&gt;ATTR_title</title>
<path fill="none" stroke="#999999" d="M685.14,-1267.6C691.18,-1297.99 701.93,-1352.01 706.85,-1376.76"/>
</g>
<!-- ENT_attendance&#45;&gt;REL_attends -->
<g id="edge5" class="edge">
<title>ENT_attendance&#45;&gt;REL_attends</title>
<path fill="none" stroke="#0d1f3c" stroke-width="2" d="M369.86,-867.76C370.13,-871.36 370.42,-875.18 370.71,-879.07"/>
<polygon fill="#0d1f3c" stroke="#0d1f3c" stroke-width="2" points="368.24,-878.92 371.21,-885.72 373.13,-878.56 368.24,-878.92"/>
</g>
<!-- REL_manages&#45;&gt;ENT_features -->
<g id="edge2" class="edge">
<title>REL_manages&#45;&gt;ENT_features</title>
<path fill="none" stroke="#0d1f3c" stroke-width="2" d="M547.94,-490.15C562.33,-509.35 580.93,-534.16 580.93,-534.16 580.93,-534.16 607.06,-579.86 607.06,-579.86 607.06,-579.86 583.12,-655.01 569.05,-699.14"/>
<polygon fill="#0d1f3c" stroke="#0d1f3c" stroke-width="2" points="566.76,-698.27 566.97,-705.69 571.43,-699.76 566.76,-698.27"/>
<text text-anchor="middle" x="562.22" y="-675.32" font-family="Arial" font-size="10.00">N</text>
</g>
<!-- REL_belongs&#45;&gt;ENT_class -->
<g id="edge4" class="edge">
<title>REL_belongs&#45;&gt;ENT_class</title>
<path fill="none" stroke="#0d1f3c" stroke-width="2" d="M476.36,-1394.5C480.55,-1406.25 485.5,-1420.13 489.87,-1432.37"/>
<polygon fill="#0d1f3c" stroke="#0d1f3c" stroke-width="2" points="487.54,-1433.14 492.2,-1438.91 492.16,-1431.49 487.54,-1433.14"/>
</g>
<!-- REL_attends&#45;&gt;ENT_student -->
<g id="edge6" class="edge">
<title>REL_attends&#45;&gt;ENT_student</title>
<path fill="none" stroke="#0d1f3c" stroke-width="2" d="M374.78,-952.22C376.79,-1017.06 381.3,-1162.63 383.3,-1227.23"/>
<polygon fill="#0d1f3c" stroke="#0d1f3c" stroke-width="2" points="380.85,-1227.29 383.52,-1234.21 385.75,-1227.13 380.85,-1227.29"/>
</g>
<!-- REL_covers&#45;&gt;ENT_schedule -->
<g id="edge8" class="edge">
<title>REL_covers&#45;&gt;ENT_schedule</title>
<path fill="none" stroke="#0d1f3c" stroke-width="2" d="M729.54,-870.02C730.11,-865.11 730.7,-860.01 731.28,-855.07"/>
<polygon fill="#0d1f3c" stroke="#0d1f3c" stroke-width="2" points="733.69,-855.5 732.07,-848.26 728.83,-854.93 733.69,-855.5"/>
</g>
<!-- REL_posts&#45;&gt;ENT_notice -->
<g id="edge10" class="edge">
<title>REL_posts&#45;&gt;ENT_notice</title>
<path fill="none" stroke="#0d1f3c" stroke-width="2" d="M251.17,-1043.39C238.33,-1052.18 222.34,-1063.12 207.8,-1073.06"/>
<polygon fill="#0d1f3c" stroke="#0d1f3c" stroke-width="2" points="206.8,-1070.78 202.41,-1076.75 209.57,-1074.82 206.8,-1070.78"/>
</g>
<!-- REL_uses&#45;&gt;ENT_schedule -->
<g id="edge12" class="edge">
<title>REL_uses&#45;&gt;ENT_schedule</title>
<path fill="none" stroke="#0d1f3c" stroke-width="2" d="M599.3,-1322.41C604.27,-1283.33 612.29,-1220.41 612.29,-1220.41 612.29,-1220.41 671.47,-903.79 671.47,-903.79 671.47,-903.79 693.35,-876.03 711.43,-853.11"/>
<polygon fill="#0d1f3c" stroke="#0d1f3c" stroke-width="2" points="713.33,-854.65 715.74,-847.64 709.48,-851.62 713.33,-854.65"/>
</g>
<!-- ENT_users -->
<g id="node1" class="node">
<title>ENT_users</title>
<polygon fill="#0d1f3c" stroke="#333333" stroke-width="2" points="241.07,-973.97 111.47,-973.97 111.47,-930.77 241.07,-930.77 241.07,-973.97"/>
<text text-anchor="middle" x="176.27" y="-947.52" font-family="Arial" font-size="13.00" fill="white">users</text>
</g>
<!-- ENT_features -->
<g id="node2" class="node">
<title>ENT_features</title>
<polygon fill="#0d1f3c" stroke="#333333" stroke-width="2" points="623.87,-752.07 494.27,-752.07 494.27,-708.87 623.87,-708.87 623.87,-752.07"/>
<text text-anchor="middle" x="559.07" y="-725.62" font-family="Arial" font-size="13.00" fill="white">features</text>
</g>
<!-- ENT_product -->
<g id="node3" class="node">
<title>ENT_product</title>
<polygon fill="#0d1f3c" stroke="#333333" stroke-width="2" points="951.33,-978.54 821.73,-978.54 821.73,-935.34 951.33,-935.34 951.33,-978.54"/>
<text text-anchor="middle" x="886.53" y="-952.09" font-family="Arial" font-size="13.00" fill="white">product</text>
</g>
<!-- ENT_student -->
<g id="node4" class="node">
<title>ENT_student</title>
<polygon fill="#8b0000" stroke="#333333" stroke-width="2" points="449.09,-1280.74 319.49,-1280.74 319.49,-1237.54 449.09,-1237.54 449.09,-1280.74"/>
<text text-anchor="middle" x="384.29" y="-1254.29" font-family="Arial" font-size="13.00" fill="white">student</text>
</g>
<!-- ENT_class -->
<g id="node5" class="node">
<title>ENT_class</title>
<polygon fill="#8b0000" stroke="#333333" stroke-width="2" points="565.9,-1485.46 436.3,-1485.46 436.3,-1442.26 565.9,-1442.26 565.9,-1485.46"/>
<text text-anchor="middle" x="501.1" y="-1459.01" font-family="Arial" font-size="13.00" fill="white">class</text>
</g>
<!-- ENT_subject -->
<g id="node6" class="node">
<title>ENT_subject</title>
<polygon fill="#8b0000" stroke="#333333" stroke-width="2" points="745.59,-1267.31 615.99,-1267.31 615.99,-1224.11 745.59,-1224.11 745.59,-1267.31"/>
<text text-anchor="middle" x="680.79" y="-1240.86" font-family="Arial" font-size="13.00" fill="white">subject</text>
</g>
<!-- ENT_attendance -->
<g id="node7" class="node">
<title>ENT_attendance</title>
<polygon fill="#8b0000" stroke="#333333" stroke-width="2" points="433.02,-867.54 303.42,-867.54 303.42,-824.34 433.02,-824.34 433.02,-867.54"/>
<text text-anchor="middle" x="368.22" y="-841.09" font-family="Arial" font-size="13.00" fill="white">attendance</text>
</g>
<!-- ENT_schedule -->
<g id="node8" class="node">
<title>ENT_schedule</title>
<polygon fill="#8b0000" stroke="#333333" stroke-width="2" points="799.77,-844.85 670.17,-844.85 670.17,-801.65 799.77,-801.65 799.77,-844.85"/>
<text text-anchor="middle" x="734.97" y="-818.4" font-family="Arial" font-size="13.00" fill="white">schedule</text>
</g>
<!-- ENT_notice -->
<g id="node9" class="node">
<title>ENT_notice</title>
<polygon fill="#8b0000" stroke="#333333" stroke-width="2" points="232.62,-1122.02 103.02,-1122.02 103.02,-1078.82 232.62,-1078.82 232.62,-1122.02"/>
<text text-anchor="middle" x="167.82" y="-1095.57" font-family="Arial" font-size="13.00" fill="white">notice</text>
</g>
<!-- REL_manages -->
<g id="node10" class="node">
<title>REL_manages</title>
<polygon fill="white" stroke="#333333" points="531.48,-500.58 481.08,-468.18 531.48,-435.78 581.88,-468.18 531.48,-500.58"/>
<text text-anchor="middle" x="531.48" y="-464.68" font-family="Arial" font-size="10.00">Manages</text>
</g>
<!-- REL_belongs -->
<g id="node11" class="node">
<title>REL_belongs</title>
<polygon fill="white" stroke="#333333" points="466.81,-1400.12 416.41,-1367.72 466.81,-1335.32 517.21,-1367.72 466.81,-1400.12"/>
<text text-anchor="middle" x="466.81" y="-1370.22" font-family="Arial" font-size="10.00">Belongs</text>
<text text-anchor="middle" x="466.81" y="-1358.22" font-family="Arial" font-size="10.00">to</text>
</g>
<!-- REL_attends -->
<g id="node12" class="node">
<title>REL_attends</title>
<polygon fill="white" stroke="#333333" points="373.78,-952.41 323.38,-920.01 373.78,-887.61 424.18,-920.01 373.78,-952.41"/>
<text text-anchor="middle" x="373.78" y="-916.51" font-family="Arial" font-size="10.00">Records</text>
</g>
<!-- REL_covers -->
<g id="node13" class="node">
<title>REL_covers</title>
<polygon fill="white" stroke="#333333" points="726,-932.99 675.6,-900.59 726,-868.19 776.4,-900.59 726,-932.99"/>
<text text-anchor="middle" x="726" y="-897.09" font-family="Arial" font-size="10.00">Covers</text>
</g>
<!-- REL_posts -->
<g id="node14" class="node">
<title>REL_posts</title>
<polygon fill="white" stroke="#333333" points="275.98,-1058.82 225.58,-1026.42 275.98,-994.02 326.38,-1026.42 275.98,-1058.82"/>
<text text-anchor="middle" x="275.98" y="-1022.92" font-family="Arial" font-size="10.00">Posts</text>
</g>
<!-- REL_uses -->
<g id="node15" class="node">
<title>REL_uses</title>
<polygon fill="white" stroke="#333333" points="595.43,-1385.18 545.03,-1352.78 595.43,-1320.38 645.83,-1352.78 595.43,-1385.18"/>
<text text-anchor="middle" x="595.43" y="-1349.28" font-family="Arial" font-size="10.00">Uses</text>
</g>
<!-- ATTR_user_id -->
<g id="node16" class="node">
<title>ATTR_user_id</title>
<ellipse fill="white" stroke="#333333" cx="160.17" cy="-1032.89" rx="43.2" ry="12.6"/>
<text text-anchor="middle" x="160.17" y="-1030.17" font-family="Arial" font-size="8.00">user_id (PK)</text>
</g>
<!-- ATTR_fullname -->
<g id="node17" class="node">
<title>ATTR_fullname</title>
<ellipse fill="white" stroke="#333333" cx="168.39" cy="-1154.67" rx="43.2" ry="12.6"/>
<text text-anchor="middle" x="168.39" y="-1151.94" font-family="Arial" font-size="8.00">fullname</text>
</g>
<!-- ATTR_email -->
<g id="node18" class="node">
<title>ATTR_email</title>
<ellipse fill="white" stroke="#333333" cx="256.17" cy="-1206.13" rx="43.2" ry="12.6"/>
<text text-anchor="middle" x="256.17" y="-1203.4" font-family="Arial" font-size="8.00">email</text>
</g>
<!-- ATTR_password -->
<g id="node19" class="node">
<title>ATTR_password</title>
<ellipse fill="white" stroke="#333333" cx="43.2" cy="-1204.16" rx="43.2" ry="12.6"/>
<text text-anchor="middle" x="43.2" y="-1201.44" font-family="Arial" font-size="8.00">password</text>
</g>
<!-- ATTR_role -->
<g id="node20" class="node">
<title>ATTR_role</title>
<ellipse fill="white" stroke="#333333" cx="149.67" cy="-1235.7" rx="43.2" ry="12.6"/>
<text text-anchor="middle" x="149.67" y="-1232.97" font-family="Arial" font-size="8.00">role</text>
</g>
<!-- ATTR_phone -->
<g id="node21" class="node">
<title>ATTR_phone</title>
<ellipse fill="white" stroke="#333333" cx="321.24" cy="-1138.03" rx="43.2" ry="12.6"/>
<text text-anchor="middle" x="321.24" y="-1135.31" font-family="Arial" font-size="8.00">phone</text>
</g>
<!-- ATTR_created_at_u -->
<g id="node22" class="node">
<title>ATTR_created_at_u</title>
<ellipse fill="white" stroke="#333333" cx="43.63" cy="-1032.03" rx="43.2" ry="12.6"/>
<text text-anchor="middle" x="43.63" y="-1029.3" font-family="Arial" font-size="8.00">created_at</text>
</g>
<!-- ATTR_features_id -->
<g id="node23" class="node">
<title>ATTR_features_id</title>
<ellipse fill="white" stroke="#333333" cx="545.7" cy="-579.86" rx="54.59" ry="12.6"/>
<text text-anchor="middle" x="545.7" y="-577.14" font-family="Arial" font-size="8.00">Features_id (PK)</text>
</g>
<!-- ATTR_fname -->
<g id="node24" class="node">
<title>ATTR_fname</title>
<ellipse fill="white" stroke="#333333" cx="681.84" cy="-617.06" rx="51.42" ry="12.6"/>
<text text-anchor="middle" x="681.84" y="-614.33" font-family="Arial" font-size="8.00">Features_name</text>
</g>
<!-- ATTR_desc -->
<g id="node25" class="node">
<title>ATTR_desc</title>
<ellipse fill="white" stroke="#333333" cx="431.96" cy="-676.22" rx="43.2" ry="12.6"/>
<text text-anchor="middle" x="431.96" y="-673.49" font-family="Arial" font-size="8.00">description</text>
</g>
<!-- ATTR_facilities -->
<g id="node26" class="node">
<title>ATTR_facilities</title>
<ellipse fill="white" stroke="#333333" cx="711.24" cy="-554.61" rx="43.2" ry="12.6"/>
<text text-anchor="middle" x="711.24" y="-551.88" font-family="Arial" font-size="8.00">facilities</text>
</g>
<!-- ATTR_fuser -->
<g id="node27" class="node">
<title>ATTR_fuser</title>
<ellipse fill="white" stroke="#333333" cx="389.18" cy="-631" rx="43.2" ry="12.6"/>
<text text-anchor="middle" x="389.18" y="-628.28" font-family="Arial" font-size="8.00">user</text>
</g>
<!-- ATTR_image -->
<g id="node28" class="node">
<title>ATTR_image</title>
<ellipse fill="white" stroke="#333333" cx="531.89" cy="-534.16" rx="43.2" ry="12.6"/>
<text text-anchor="middle" x="531.89" y="-531.44" font-family="Arial" font-size="8.00">image</text>
</g>
<!-- ATTR_created_at_f -->
<g id="node29" class="node">
<title>ATTR_created_at_f</title>
<ellipse fill="white" stroke="#333333" cx="647.59" cy="-480.35" rx="43.2" ry="12.6"/>
<text text-anchor="middle" x="647.59" y="-477.63" font-family="Arial" font-size="8.00">created_at</text>
</g>
<!-- ATTR_product_id -->
<g id="node30" class="node">
<title>ATTR_product_id</title>
<ellipse fill="white" stroke="#333333" cx="866.35" cy="-1052.95" rx="50.89" ry="12.6"/>
<text text-anchor="middle" x="866.35" y="-1050.22" font-family="Arial" font-size="8.00">product_id (PK)</text>
</g>
<!-- ATTR_pname -->
<g id="node31" class="node">
<title>ATTR_pname</title>
<ellipse fill="white" stroke="#333333" cx="884.43" cy="-1151.53" rx="47.72" ry="12.6"/>
<text text-anchor="middle" x="884.43" y="-1148.81" font-family="Arial" font-size="8.00">product_name</text>
</g>
<!-- ATTR_pdesc -->
<g id="node32" class="node">
<title>ATTR_pdesc</title>
<ellipse fill="white" stroke="#333333" cx="979.07" cy="-1204.09" rx="43.2" ry="12.6"/>
<text text-anchor="middle" x="979.07" y="-1201.36" font-family="Arial" font-size="8.00">description</text>
</g>
<!-- ATTR_price -->
<g id="node33" class="node">
<title>ATTR_price</title>
<ellipse fill="white" stroke="#333333" cx="808.88" cy="-1201.87" rx="43.2" ry="12.6"/>
<text text-anchor="middle" x="808.88" y="-1199.14" font-family="Arial" font-size="8.00">price</text>
</g>
<!-- ATTR_quantity -->
<g id="node34" class="node">
<title>ATTR_quantity</title>
<ellipse fill="white" stroke="#333333" cx="889.76" cy="-1255.69" rx="43.2" ry="12.6"/>
<text text-anchor="middle" x="889.76" y="-1252.97" font-family="Arial" font-size="8.00">quantity</text>
</g>
<!-- ATTR_created_at_p -->
<g id="node35" class="node">
<title>ATTR_created_at_p</title>
<ellipse fill="white" stroke="#333333" cx="980.55" cy="-1051.89" rx="43.2" ry="12.6"/>
<text text-anchor="middle" x="980.55" y="-1049.16" font-family="Arial" font-size="8.00">created_at</text>
</g>
<!-- ATTR_stu_id -->
<g id="node36" class="node">
<title>ATTR_stu_id</title>
<ellipse fill="white" stroke="#333333" cx="352.51" cy="-1338.13" rx="43.2" ry="12.6"/>
<text text-anchor="middle" x="352.51" y="-1335.4" font-family="Arial" font-size="8.00">id (PK)</text>
</g>
<!-- ATTR_first -->
<g id="node37" class="node">
<title>ATTR_first</title>
<ellipse fill="white" stroke="#333333" cx="258.06" cy="-1387.68" rx="43.2" ry="12.6"/>
<text text-anchor="middle" x="258.06" y="-1384.95" font-family="Arial" font-size="8.00">first_name</text>
</g>
<!-- ATTR_last -->
<g id="node38" class="node">
<title>ATTR_last</title>
<ellipse fill="white" stroke="#333333" cx="344.74" cy="-1447.08" rx="43.2" ry="12.6"/>
<text text-anchor="middle" x="344.74" y="-1444.35" font-family="Arial" font-size="8.00">last_name</text>
</g>
<!-- ATTR_class_id -->
<g id="node39" class="node">
<title>ATTR_class_id</title>
<ellipse fill="white" stroke="#333333" cx="629.47" cy="-1506.3" rx="43.2" ry="12.6"/>
<text text-anchor="middle" x="629.47" y="-1503.57" font-family="Arial" font-size="8.00">id (PK)</text>
</g>
<!-- ATTR_classroom -->
<g id="node40" class="node">
<title>ATTR_classroom</title>
<ellipse fill="white" stroke="#333333" cx="518.84" cy="-1557.38" rx="43.2" ry="12.6"/>
<text text-anchor="middle" x="518.84" y="-1554.66" font-family="Arial" font-size="8.00">classroom</text>
</g>
<!-- ATTR_subj_id -->
<g id="node41" class="node">
<title>ATTR_subj_id</title>
<ellipse fill="white" stroke="#333333" cx="796.93" cy="-1325.03" rx="43.2" ry="12.6"/>
<text text-anchor="middle" x="796.93" y="-1322.31" font-family="Arial" font-size="8.00">id (PK)</text>
</g>
<!-- ATTR_title -->
<g id="node42" class="node">
<title>ATTR_title</title>
<ellipse fill="white" stroke="#333333" cx="709.44" cy="-1389.8" rx="43.2" ry="12.6"/>
<text text-anchor="middle" x="709.44" y="-1387.07" font-family="Arial" font-size="8.00">title</text>
</g>
<!-- LEGEND_BG -->
<g id="node43" class="node">
<title>LEGEND_BG</title>
<polygon fill="#f5f5f5" stroke="#cccccc" points="453.97,-598.35 201.97,-598.35 201.97,-274.35 453.97,-274.35 453.97,-598.35"/>
</g>
<!-- LEGEND_HEAD -->
<g id="node44" class="node">
<title>LEGEND_HEAD</title>
<polygon fill="#dddddd" stroke="#333333" points="421.18,-254.35 241.18,-254.35 241.18,-225.55 421.18,-225.55 421.18,-254.35"/>
<text text-anchor="middle" x="331.18" y="-236.25" font-family="Arial" font-size="11.00">Legend</text>
</g>
<!-- LEGEND_ENT_N -->
<g id="node45" class="node">
<title>LEGEND_ENT_N</title>
<polygon fill="#0d1f3c" stroke="#333333" points="423.54,-205.53 243.54,-205.53 243.54,-183.93 423.54,-183.93 423.54,-205.53"/>
<text text-anchor="middle" x="333.54" y="-192" font-family="Arial" font-size="8.00" fill="white">Main Entity</text>
</g>
<!-- LEGEND_SUP_N -->
<g id="node46" class="node">
<title>LEGEND_SUP_N</title>
<polygon fill="#8b0000" stroke="#333333" points="427.49,-163.89 247.49,-163.89 247.49,-142.29 427.49,-142.29 427.49,-163.89"/>
<text text-anchor="middle" x="337.49" y="-150.36" font-family="Arial" font-size="8.00" fill="white">Supporting Entity</text>
</g>
<!-- LEGEND_REL_N -->
<g id="node47" class="node">
<title>LEGEND_REL_N</title>
<polygon fill="white" stroke="#333333" points="339.14,-122.24 249.14,-104.49 339.14,-86.74 429.14,-104.49 339.14,-122.24"/>
<text text-anchor="middle" x="339.14" y="-101.77" font-family="Arial" font-size="8.00">Relationship</text>
</g>
<!-- LEGEND_ATTR_N -->
<g id="node48" class="node">
<title>LEGEND_ATTR_N</title>
<ellipse fill="white" stroke="#333333" cx="343.96" cy="-54.19" rx="90" ry="12.55"/>
<text text-anchor="middle" x="343.96" y="-51.46" font-family="Arial" font-size="8.00">Attribute</text>
</g>
<!-- LEGEND_PK_N -->
<g id="node49" class="node">
<title>LEGEND_PK_N</title>
<polygon fill="#eeeeee" stroke="#333333" points="435.99,-21.6 255.99,-21.6 255.99,0 435.99,0 435.99,-21.6"/>
<text text-anchor="middle" x="345.99" y="-8.07" font-family="Arial" font-size="8.00">PK = Primary Key</text>
</g>
</g>
</svg>
