<?xml version="1.0" encoding="UTF-8" standalone="no"?>
<!DOCTYPE svg PUBLIC "-//W3C//DTD SVG 1.1//EN"
 "http://www.w3.org/Graphics/SVG/1.1/DTD/svg11.dtd">
<!-- Generated by graphviz version 12.2.1 (20241206.2353)
 -->
<!-- Title: DatabaseERDiagram Pages: 1 -->
<svg width="2746pt" height="4390pt"
 viewBox="0.00 0.00 988.50 1580.25" xmlns="http://www.w3.org/2000/svg" xmlns:xlink="http://www.w3.org/1999/xlink">
<g id="graph0" class="graph" transform="scale(2.77778 2.77778) rotate(0) translate(36 1544.25)">
<title>DatabaseERDiagram</title>
<polygon fill="white" stroke="none" points="-36,36 -36,-1544.25 952.5,-1544.25 952.5,36 -36,36"/>
<!-- users -->
<g id="node1" class="node">
<title>users</title>
<polygon fill="white" stroke="none" points="361.25,0 361.25,-158 582.25,-158 582.25,0 361.25,0"/>
<polygon fill="#0d1f3c" stroke="none" points="362.25,-137.5 362.25,-157 581.25,-157 581.25,-137.5 362.25,-137.5"/>
<polygon fill="none" stroke="black" points="362.25,-137.5 362.25,-157 581.25,-157 581.25,-137.5 362.25,-137.5"/>
<text text-anchor="start" x="457.12" y="-144.55" font-family="Arial" font-weight="bold" font-size="11.00" fill="white">users</text>
<polygon fill="none" stroke="black" points="362.25,-118 362.25,-137.5 581.25,-137.5 581.25,-118 362.25,-118"/>
<text text-anchor="start" x="365.25" y="-125.05" font-family="Arial" font-weight="bold" font-size="11.00">user_id</text>
<text text-anchor="start" x="404.25" y="-125.05" font-family="Arial" font-size="11.00"> &#160;INT (PK)</text>
<polygon fill="none" stroke="black" points="362.25,-98.5 362.25,-118 581.25,-118 581.25,-98.5 362.25,-98.5"/>
<text text-anchor="start" x="365.25" y="-104.55" font-family="Arial" font-size="11.00">fullname &#160;VARCHAR(100)</text>
<polygon fill="none" stroke="black" points="362.25,-79 362.25,-98.5 581.25,-98.5 581.25,-79 362.25,-79"/>
<text text-anchor="start" x="365.25" y="-85.05" font-family="Arial" font-size="11.00">email &#160;VARCHAR(100) (UNIQUE)</text>
<polygon fill="none" stroke="black" points="362.25,-59.5 362.25,-79 581.25,-79 581.25,-59.5 362.25,-59.5"/>
<text text-anchor="start" x="365.25" y="-65.55" font-family="Arial" font-size="11.00">password &#160;VARCHAR(255) (bcrypt)</text>
<polygon fill="none" stroke="black" points="362.25,-40 362.25,-59.5 581.25,-59.5 581.25,-40 362.25,-40"/>
<text text-anchor="start" x="365.25" y="-46.05" font-family="Arial" font-size="11.00">role &#160;ENUM(Admin,Lecturer,Student,Parent)</text>
<polygon fill="none" stroke="black" points="362.25,-20.5 362.25,-40 581.25,-40 581.25,-20.5 362.25,-20.5"/>
<text text-anchor="start" x="365.25" y="-26.55" font-family="Arial" font-size="11.00">phone &#160;VARCHAR(20)</text>
<polygon fill="none" stroke="black" points="362.25,-1 362.25,-20.5 581.25,-20.5 581.25,-1 362.25,-1"/>
<text text-anchor="start" x="365.25" y="-7.05" font-family="Arial" font-size="11.00">created_at &#160;TIMESTAMP</text>
<polygon fill="none" stroke="black" points="361.25,0 361.25,-158 582.25,-158 582.25,0 361.25,0"/>
</g>
<!-- features -->
<g id="node2" class="node">
<title>features</title>
<polygon fill="white" stroke="none" points="0,-294 0,-452 170,-452 170,-294 0,-294"/>
<polygon fill="#0d1f3c" stroke="none" points="1,-431.5 1,-451 169,-451 169,-431.5 1,-431.5"/>
<polygon fill="none" stroke="black" points="1,-431.5 1,-451 169,-451 169,-431.5 1,-431.5"/>
<text text-anchor="start" x="63.62" y="-438.55" font-family="Arial" font-weight="bold" font-size="11.00" fill="white">features</text>
<polygon fill="none" stroke="black" points="1,-412 1,-431.5 169,-431.5 169,-412 1,-412"/>
<text text-anchor="start" x="4" y="-419.05" font-family="Arial" font-weight="bold" font-size="11.00">Features_id</text>
<text text-anchor="start" x="65.5" y="-419.05" font-family="Arial" font-size="11.00"> &#160;INT (PK)</text>
<polygon fill="none" stroke="black" points="1,-392.5 1,-412 169,-412 169,-392.5 1,-392.5"/>
<text text-anchor="start" x="4" y="-398.55" font-family="Arial" font-size="11.00">Features_name &#160;VARCHAR(100)</text>
<polygon fill="none" stroke="black" points="1,-373 1,-392.5 169,-392.5 169,-373 1,-373"/>
<text text-anchor="start" x="4" y="-379.05" font-family="Arial" font-size="11.00">description &#160;VARCHAR(500)</text>
<polygon fill="none" stroke="black" points="1,-353.5 1,-373 169,-373 169,-353.5 1,-353.5"/>
<text text-anchor="start" x="4" y="-359.55" font-family="Arial" font-size="11.00">facilities &#160;TEXT</text>
<polygon fill="none" stroke="black" points="1,-334 1,-353.5 169,-353.5 169,-334 1,-334"/>
<text text-anchor="start" x="4" y="-340.05" font-family="Arial" font-size="11.00">user &#160;VARCHAR(100)</text>
<polygon fill="none" stroke="black" points="1,-314.5 1,-334 169,-334 169,-314.5 1,-314.5"/>
<text text-anchor="start" x="4" y="-320.55" font-family="Arial" font-size="11.00">image &#160;VARCHAR(255)</text>
<polygon fill="none" stroke="black" points="1,-295 1,-314.5 169,-314.5 169,-295 1,-295"/>
<text text-anchor="start" x="4" y="-301.05" font-family="Arial" font-size="11.00">created_at &#160;TIMESTAMP</text>
<polygon fill="none" stroke="black" points="0,-294 0,-452 170,-452 170,-294 0,-294"/>
</g>
<!-- product -->
<g id="node3" class="node">
<title>product</title>
<polygon fill="white" stroke="none" points="3.38,-519.75 3.38,-658.25 166.62,-658.25 166.62,-519.75 3.38,-519.75"/>
<polygon fill="#0d1f3c" stroke="none" points="4.38,-637.75 4.38,-657.25 165.62,-657.25 165.62,-637.75 4.38,-637.75"/>
<polygon fill="none" stroke="black" points="4.38,-637.75 4.38,-657.25 165.62,-657.25 165.62,-637.75 4.38,-637.75"/>
<text text-anchor="start" x="64.38" y="-644.8" font-family="Arial" font-weight="bold" font-size="11.00" fill="white">product</text>
<polygon fill="none" stroke="black" points="4.38,-618.25 4.38,-637.75 165.62,-637.75 165.62,-618.25 4.38,-618.25"/>
<text text-anchor="start" x="7.38" y="-625.3" font-family="Arial" font-weight="bold" font-size="11.00">product_id</text>
<text text-anchor="start" x="64.38" y="-625.3" font-family="Arial" font-size="11.00"> &#160;INT (PK)</text>
<polygon fill="none" stroke="black" points="4.38,-598.75 4.38,-618.25 165.62,-618.25 165.62,-598.75 4.38,-598.75"/>
<text text-anchor="start" x="7.38" y="-604.8" font-family="Arial" font-size="11.00">product_name &#160;VARCHAR(100)</text>
<polygon fill="none" stroke="black" points="4.38,-579.25 4.38,-598.75 165.62,-598.75 165.62,-579.25 4.38,-579.25"/>
<text text-anchor="start" x="7.38" y="-585.3" font-family="Arial" font-size="11.00">description &#160;TEXT</text>
<polygon fill="none" stroke="black" points="4.38,-559.75 4.38,-579.25 165.62,-579.25 165.62,-559.75 4.38,-559.75"/>
<text text-anchor="start" x="7.38" y="-565.8" font-family="Arial" font-size="11.00">price &#160;DECIMAL(10,2)</text>
<polygon fill="none" stroke="black" points="4.38,-540.25 4.38,-559.75 165.62,-559.75 165.62,-540.25 4.38,-540.25"/>
<text text-anchor="start" x="7.38" y="-546.3" font-family="Arial" font-size="11.00">quantity &#160;INT</text>
<polygon fill="none" stroke="black" points="4.38,-520.75 4.38,-540.25 165.62,-540.25 165.62,-520.75 4.38,-520.75"/>
<text text-anchor="start" x="7.38" y="-526.8" font-family="Arial" font-size="11.00">created_at &#160;TIMESTAMP</text>
<polygon fill="none" stroke="black" points="3.38,-519.75 3.38,-658.25 166.62,-658.25 166.62,-519.75 3.38,-519.75"/>
</g>
<!-- student -->
<g id="node4" class="node">
<title>student</title>
<polygon fill="white" stroke="none" points="399.5,-500.25 399.5,-677.75 544,-677.75 544,-500.25 399.5,-500.25"/>
<polygon fill="#8b0000" stroke="none" points="400.5,-657.25 400.5,-676.75 543,-676.75 543,-657.25 400.5,-657.25"/>
<polygon fill="none" stroke="black" points="400.5,-657.25 400.5,-676.75 543,-676.75 543,-657.25 400.5,-657.25"/>
<text text-anchor="start" x="451.88" y="-664.3" font-family="Arial" font-weight="bold" font-size="11.00" fill="white">student</text>
<polygon fill="none" stroke="black" points="400.5,-637.75 400.5,-657.25 543,-657.25 543,-637.75 400.5,-637.75"/>
<text text-anchor="start" x="403.5" y="-644.8" font-family="Arial" font-weight="bold" font-size="11.00">id</text>
<text text-anchor="start" x="413.25" y="-644.8" font-family="Arial" font-size="11.00"> &#160;INT (PK)</text>
<polygon fill="none" stroke="black" points="400.5,-618.25 400.5,-637.75 543,-637.75 543,-618.25 400.5,-618.25"/>
<text text-anchor="start" x="403.5" y="-624.3" font-family="Arial" font-size="11.00">first_name &#160;VARCHAR(100)</text>
<polygon fill="none" stroke="black" points="400.5,-598.75 400.5,-618.25 543,-618.25 543,-598.75 400.5,-598.75"/>
<text text-anchor="start" x="403.5" y="-604.8" font-family="Arial" font-size="11.00">last_name &#160;VARCHAR(100)</text>
<polygon fill="none" stroke="black" points="400.5,-579.25 400.5,-598.75 543,-598.75 543,-579.25 400.5,-579.25"/>
<text text-anchor="start" x="403.5" y="-585.3" font-family="Arial" font-size="11.00">email &#160;VARCHAR(100)</text>
<polygon fill="none" stroke="black" points="400.5,-559.75 400.5,-579.25 543,-579.25 543,-559.75 400.5,-559.75"/>
<text text-anchor="start" x="403.5" y="-565.8" font-family="Arial" font-size="11.00">phone &#160;VARCHAR(20)</text>
<polygon fill="none" stroke="black" points="400.5,-540.25 400.5,-559.75 543,-559.75 543,-540.25 400.5,-540.25"/>
<text text-anchor="start" x="403.5" y="-546.3" font-family="Arial" font-size="11.00">gender &#160;VARCHAR(10)</text>
<polygon fill="none" stroke="black" points="400.5,-520.75 400.5,-540.25 543,-540.25 543,-520.75 400.5,-520.75"/>
<text text-anchor="start" x="403.5" y="-526.8" font-family="Arial" font-size="11.00">classroom_id &#160;INT (FK)</text>
<polygon fill="none" stroke="black" points="400.5,-501.25 400.5,-520.75 543,-520.75 543,-501.25 400.5,-501.25"/>
<text text-anchor="start" x="403.5" y="-507.3" font-family="Arial" font-size="11.00">created_at &#160;TIMESTAMP</text>
<polygon fill="none" stroke="black" points="399.5,-500.25 399.5,-677.75 544,-677.75 544,-500.25 399.5,-500.25"/>
</g>
<!-- class -->
<g id="node8" class="node">
<title>class</title>
<polygon fill="white" stroke="none" points="773.5,-482 773.5,-562 916.5,-562 916.5,-482 773.5,-482"/>
<polygon fill="#8b0000" stroke="none" points="774.5,-541.5 774.5,-561 915.5,-561 915.5,-541.5 774.5,-541.5"/>
<polygon fill="none" stroke="black" points="774.5,-541.5 774.5,-561 915.5,-561 915.5,-541.5 774.5,-541.5"/>
<text text-anchor="start" x="831.5" y="-548.55" font-family="Arial" font-weight="bold" font-size="11.00" fill="white">class</text>
<polygon fill="none" stroke="black" points="774.5,-522 774.5,-541.5 915.5,-541.5 915.5,-522 774.5,-522"/>
<text text-anchor="start" x="777.5" y="-529.05" font-family="Arial" font-weight="bold" font-size="11.00">id</text>
<text text-anchor="start" x="787.25" y="-529.05" font-family="Arial" font-size="11.00"> &#160;INT (PK)</text>
<polygon fill="none" stroke="black" points="774.5,-502.5 774.5,-522 915.5,-522 915.5,-502.5 774.5,-502.5"/>
<text text-anchor="start" x="777.5" y="-508.55" font-family="Arial" font-size="11.00">classroom &#160;VARCHAR(100)</text>
<polygon fill="none" stroke="black" points="774.5,-483 774.5,-502.5 915.5,-502.5 915.5,-483 774.5,-483"/>
<text text-anchor="start" x="777.5" y="-489.05" font-family="Arial" font-size="11.00">created_at &#160;TIMESTAMP</text>
<polygon fill="none" stroke="black" points="773.5,-482 773.5,-562 916.5,-562 916.5,-482 773.5,-482"/>
</g>
<!-- student&#45;&gt;class -->
<g id="edge1" class="edge">
<title>student:classroom_id&#45;&gt;class:id</title>
<path fill="none" stroke="#0d1f3c" stroke-width="1.5" d="M544,-530.5C642.91,-530.5 669.88,-531.68 764.44,-531.75"/>
<polygon fill="#0d1f3c" stroke="#0d1f3c" stroke-width="1.5" points="764.23,-534.2 771.23,-531.75 764.23,-529.3 764.23,-534.2"/>
<text text-anchor="middle" x="677.88" y="-533.43" font-family="Arial" font-size="9.00"> &#160;belongs to</text>
</g>
<!-- teacher -->
<g id="node5" class="node">
<title>teacher</title>
<polygon fill="white" stroke="none" points="12.75,-898.25 12.75,-1075.75 157.25,-1075.75 157.25,-898.25 12.75,-898.25"/>
<polygon fill="#8b0000" stroke="none" points="13.75,-1055.25 13.75,-1074.75 156.25,-1074.75 156.25,-1055.25 13.75,-1055.25"/>
<polygon fill="none" stroke="black" points="13.75,-1055.25 13.75,-1074.75 156.25,-1074.75 156.25,-1055.25 13.75,-1055.25"/>
<text text-anchor="start" x="65.5" y="-1062.3" font-family="Arial" font-weight="bold" font-size="11.00" fill="white">teacher</text>
<polygon fill="none" stroke="black" points="13.75,-1035.75 13.75,-1055.25 156.25,-1055.25 156.25,-1035.75 13.75,-1035.75"/>
<text text-anchor="start" x="16.75" y="-1042.8" font-family="Arial" font-weight="bold" font-size="11.00">id</text>
<text text-anchor="start" x="26.5" y="-1042.8" font-family="Arial" font-size="11.00"> &#160;INT (PK)</text>
<polygon fill="none" stroke="black" points="13.75,-1016.25 13.75,-1035.75 156.25,-1035.75 156.25,-1016.25 13.75,-1016.25"/>
<text text-anchor="start" x="16.75" y="-1022.3" font-family="Arial" font-size="11.00">first_name &#160;VARCHAR(100)</text>
<polygon fill="none" stroke="black" points="13.75,-996.75 13.75,-1016.25 156.25,-1016.25 156.25,-996.75 13.75,-996.75"/>
<text text-anchor="start" x="16.75" y="-1002.8" font-family="Arial" font-size="11.00">last_name &#160;VARCHAR(100)</text>
<polygon fill="none" stroke="black" points="13.75,-977.25 13.75,-996.75 156.25,-996.75 156.25,-977.25 13.75,-977.25"/>
<text text-anchor="start" x="16.75" y="-983.3" font-family="Arial" font-size="11.00">email &#160;VARCHAR(100)</text>
<polygon fill="none" stroke="black" points="13.75,-957.75 13.75,-977.25 156.25,-977.25 156.25,-957.75 13.75,-957.75"/>
<text text-anchor="start" x="16.75" y="-963.8" font-family="Arial" font-size="11.00">phone &#160;VARCHAR(20)</text>
<polygon fill="none" stroke="black" points="13.75,-938.25 13.75,-957.75 156.25,-957.75 156.25,-938.25 13.75,-938.25"/>
<text text-anchor="start" x="16.75" y="-944.3" font-family="Arial" font-size="11.00">gender &#160;VARCHAR(10)</text>
<polygon fill="none" stroke="black" points="13.75,-918.75 13.75,-938.25 156.25,-938.25 156.25,-918.75 13.75,-918.75"/>
<text text-anchor="start" x="16.75" y="-924.8" font-family="Arial" font-size="11.00">salary &#160;VARCHAR(50)</text>
<polygon fill="none" stroke="black" points="13.75,-899.25 13.75,-918.75 156.25,-918.75 156.25,-899.25 13.75,-899.25"/>
<text text-anchor="start" x="16.75" y="-905.3" font-family="Arial" font-size="11.00">created_at &#160;TIMESTAMP</text>
<polygon fill="none" stroke="black" points="12.75,-898.25 12.75,-1075.75 157.25,-1075.75 157.25,-898.25 12.75,-898.25"/>
</g>
<!-- parent -->
<g id="node6" class="node">
<title>parent</title>
<polygon fill="white" stroke="none" points="12.75,-1134.25 12.75,-1311.75 157.25,-1311.75 157.25,-1134.25 12.75,-1134.25"/>
<polygon fill="#8b0000" stroke="none" points="13.75,-1291.25 13.75,-1310.75 156.25,-1310.75 156.25,-1291.25 13.75,-1291.25"/>
<polygon fill="none" stroke="black" points="13.75,-1291.25 13.75,-1310.75 156.25,-1310.75 156.25,-1291.25 13.75,-1291.25"/>
<text text-anchor="start" x="68.12" y="-1298.3" font-family="Arial" font-weight="bold" font-size="11.00" fill="white">parent</text>
<polygon fill="none" stroke="black" points="13.75,-1271.75 13.75,-1291.25 156.25,-1291.25 156.25,-1271.75 13.75,-1271.75"/>
<text text-anchor="start" x="16.75" y="-1278.8" font-family="Arial" font-weight="bold" font-size="11.00">id</text>
<text text-anchor="start" x="26.5" y="-1278.8" font-family="Arial" font-size="11.00"> &#160;INT (PK)</text>
<polygon fill="none" stroke="black" points="13.75,-1252.25 13.75,-1271.75 156.25,-1271.75 156.25,-1252.25 13.75,-1252.25"/>
<text text-anchor="start" x="16.75" y="-1258.3" font-family="Arial" font-size="11.00">first_name &#160;VARCHAR(100)</text>
<polygon fill="none" stroke="black" points="13.75,-1232.75 13.75,-1252.25 156.25,-1252.25 156.25,-1232.75 13.75,-1232.75"/>
<text text-anchor="start" x="16.75" y="-1238.8" font-family="Arial" font-size="11.00">last_name &#160;VARCHAR(100)</text>
<polygon fill="none" stroke="black" points="13.75,-1213.25 13.75,-1232.75 156.25,-1232.75 156.25,-1213.25 13.75,-1213.25"/>
<text text-anchor="start" x="16.75" y="-1219.3" font-family="Arial" font-size="11.00">email &#160;VARCHAR(100)</text>
<polygon fill="none" stroke="black" points="13.75,-1193.75 13.75,-1213.25 156.25,-1213.25 156.25,-1193.75 13.75,-1193.75"/>
<text text-anchor="start" x="16.75" y="-1199.8" font-family="Arial" font-size="11.00">phone &#160;VARCHAR(20)</text>
<polygon fill="none" stroke="black" points="13.75,-1174.25 13.75,-1193.75 156.25,-1193.75 156.25,-1174.25 13.75,-1174.25"/>
<text text-anchor="start" x="16.75" y="-1180.3" font-family="Arial" font-size="11.00">gender &#160;VARCHAR(10)</text>
<polygon fill="none" stroke="black" points="13.75,-1154.75 13.75,-1174.25 156.25,-1174.25 156.25,-1154.75 13.75,-1154.75"/>
<text text-anchor="start" x="16.75" y="-1160.8" font-family="Arial" font-size="11.00">profession &#160;VARCHAR(100)</text>
<polygon fill="none" stroke="black" points="13.75,-1135.25 13.75,-1154.75 156.25,-1154.75 156.25,-1135.25 13.75,-1135.25"/>
<text text-anchor="start" x="16.75" y="-1141.3" font-family="Arial" font-size="11.00">created_at &#160;TIMESTAMP</text>
<polygon fill="none" stroke="black" points="12.75,-1134.25 12.75,-1311.75 157.25,-1311.75 157.25,-1134.25 12.75,-1134.25"/>
</g>
<!-- subject -->
<g id="node7" class="node">
<title>subject</title>
<polygon fill="white" stroke="none" points="780.62,-775.25 780.62,-874.75 909.38,-874.75 909.38,-775.25 780.62,-775.25"/>
<polygon fill="#8b0000" stroke="none" points="781.62,-854.25 781.62,-873.75 908.38,-873.75 908.38,-854.25 781.62,-854.25"/>
<polygon fill="none" stroke="black" points="781.62,-854.25 781.62,-873.75 908.38,-873.75 908.38,-854.25 781.62,-854.25"/>
<text text-anchor="start" x="825.88" y="-861.3" font-family="Arial" font-weight="bold" font-size="11.00" fill="white">subject</text>
<polygon fill="none" stroke="black" points="781.62,-834.75 781.62,-854.25 908.38,-854.25 908.38,-834.75 781.62,-834.75"/>
<text text-anchor="start" x="784.62" y="-841.8" font-family="Arial" font-weight="bold" font-size="11.00">id</text>
<text text-anchor="start" x="794.38" y="-841.8" font-family="Arial" font-size="11.00"> &#160;INT (PK)</text>
<polygon fill="none" stroke="black" points="781.62,-815.25 781.62,-834.75 908.38,-834.75 908.38,-815.25 781.62,-815.25"/>
<text text-anchor="start" x="784.62" y="-821.3" font-family="Arial" font-size="11.00">title &#160;VARCHAR(100)</text>
<polygon fill="none" stroke="black" points="781.62,-795.75 781.62,-815.25 908.38,-815.25 908.38,-795.75 781.62,-795.75"/>
<text text-anchor="start" x="784.62" y="-801.8" font-family="Arial" font-size="11.00">subtitle &#160;VARCHAR(100)</text>
<polygon fill="none" stroke="black" points="781.62,-776.25 781.62,-795.75 908.38,-795.75 908.38,-776.25 781.62,-776.25"/>
<text text-anchor="start" x="784.62" y="-782.3" font-family="Arial" font-size="11.00">created_at &#160;TIMESTAMP</text>
<polygon fill="none" stroke="black" points="780.62,-775.25 780.62,-874.75 909.38,-874.75 909.38,-775.25 780.62,-775.25"/>
</g>
<!-- attendance -->
<g id="node9" class="node">
<title>attendance</title>
<polygon fill="white" stroke="none" points="20.62,-721.5 20.62,-840.5 149.38,-840.5 149.38,-721.5 20.62,-721.5"/>
<polygon fill="#8b0000" stroke="none" points="21.62,-820 21.62,-839.5 148.38,-839.5 148.38,-820 21.62,-820"/>
<polygon fill="none" stroke="black" points="21.62,-820 21.62,-839.5 148.38,-839.5 148.38,-820 21.62,-820"/>
<text text-anchor="start" x="56.12" y="-827.05" font-family="Arial" font-weight="bold" font-size="11.00" fill="white">attendance</text>
<polygon fill="none" stroke="black" points="21.62,-800.5 21.62,-820 148.38,-820 148.38,-800.5 21.62,-800.5"/>
<text text-anchor="start" x="24.62" y="-807.55" font-family="Arial" font-weight="bold" font-size="11.00">id</text>
<text text-anchor="start" x="34.38" y="-807.55" font-family="Arial" font-size="11.00"> &#160;INT (PK)</text>
<polygon fill="none" stroke="black" points="21.62,-781 21.62,-800.5 148.38,-800.5 148.38,-781 21.62,-781"/>
<text text-anchor="start" x="24.62" y="-787.05" font-family="Arial" font-size="11.00">session_id &#160;INT (FK)</text>
<polygon fill="none" stroke="black" points="21.62,-761.5 21.62,-781 148.38,-781 148.38,-761.5 21.62,-761.5"/>
<text text-anchor="start" x="24.62" y="-767.55" font-family="Arial" font-size="11.00">student_id &#160;INT (FK)</text>
<polygon fill="none" stroke="black" points="21.62,-742 21.62,-761.5 148.38,-761.5 148.38,-742 21.62,-742"/>
<text text-anchor="start" x="24.62" y="-748.05" font-family="Arial" font-size="11.00">status &#160;VARCHAR(20)</text>
<polygon fill="none" stroke="black" points="21.62,-722.5 21.62,-742 148.38,-742 148.38,-722.5 21.62,-722.5"/>
<text text-anchor="start" x="24.62" y="-728.55" font-family="Arial" font-size="11.00">created_at &#160;TIMESTAMP</text>
<polygon fill="none" stroke="black" points="20.62,-721.5 20.62,-840.5 149.38,-840.5 149.38,-721.5 20.62,-721.5"/>
</g>
<!-- attendance&#45;&gt;student -->
<g id="edge5" class="edge">
<title>attendance:student_id&#45;&gt;student:id</title>
<path fill="none" stroke="#8b0000" d="M149.38,-771.25C270.62,-771.25 275.32,-653 391.32,-647.68"/>
<polygon fill="#8b0000" stroke="#8b0000" points="391.04,-650.14 397.99,-647.53 390.93,-645.24 391.04,-650.14"/>
<text text-anchor="middle" x="265.62" y="-740.01" font-family="Arial" font-size="9.00"> &#160;for student</text>
</g>
<!-- schedule -->
<g id="node10" class="node">
<title>schedule</title>
<polygon fill="white" stroke="none" points="407.38,-736 407.38,-894 536.12,-894 536.12,-736 407.38,-736"/>
<polygon fill="#8b0000" stroke="none" points="408.38,-873.5 408.38,-893 535.12,-893 535.12,-873.5 408.38,-873.5"/>
<polygon fill="none" stroke="black" points="408.38,-873.5 408.38,-893 535.12,-893 535.12,-873.5 408.38,-873.5"/>
<text text-anchor="start" x="448.12" y="-880.55" font-family="Arial" font-weight="bold" font-size="11.00" fill="white">schedule</text>
<polygon fill="none" stroke="black" points="408.38,-854 408.38,-873.5 535.12,-873.5 535.12,-854 408.38,-854"/>
<text text-anchor="start" x="411.38" y="-861.05" font-family="Arial" font-weight="bold" font-size="11.00">id</text>
<text text-anchor="start" x="421.12" y="-861.05" font-family="Arial" font-size="11.00"> &#160;INT (PK)</text>
<polygon fill="none" stroke="black" points="408.38,-834.5 408.38,-854 535.12,-854 535.12,-834.5 408.38,-834.5"/>
<text text-anchor="start" x="411.38" y="-840.55" font-family="Arial" font-size="11.00">subject &#160;INT (FK)</text>
<polygon fill="none" stroke="black" points="408.38,-815 408.38,-834.5 535.12,-834.5 535.12,-815 408.38,-815"/>
<text text-anchor="start" x="411.38" y="-821.05" font-family="Arial" font-size="11.00">classroom &#160;INT (FK)</text>
<polygon fill="none" stroke="black" points="408.38,-795.5 408.38,-815 535.12,-815 535.12,-795.5 408.38,-795.5"/>
<text text-anchor="start" x="411.38" y="-801.55" font-family="Arial" font-size="11.00">day &#160;VARCHAR(20)</text>
<polygon fill="none" stroke="black" points="408.38,-776 408.38,-795.5 535.12,-795.5 535.12,-776 408.38,-776"/>
<text text-anchor="start" x="411.38" y="-782.05" font-family="Arial" font-size="11.00">time_start &#160;TIME</text>
<polygon fill="none" stroke="black" points="408.38,-756.5 408.38,-776 535.12,-776 535.12,-756.5 408.38,-756.5"/>
<text text-anchor="start" x="411.38" y="-762.55" font-family="Arial" font-size="11.00">time_end &#160;TIME</text>
<polygon fill="none" stroke="black" points="408.38,-737 408.38,-756.5 535.12,-756.5 535.12,-737 408.38,-737"/>
<text text-anchor="start" x="411.38" y="-743.05" font-family="Arial" font-size="11.00">created_at &#160;TIMESTAMP</text>
<polygon fill="none" stroke="black" points="407.38,-736 407.38,-894 536.12,-894 536.12,-736 407.38,-736"/>
</g>
<!-- attendance&#45;&gt;schedule -->
<g id="edge4" class="edge">
<title>attendance:session_id&#45;&gt;schedule:id</title>
<path fill="none" stroke="#8b0000" d="M149.38,-790.75C265.75,-790.75 287.23,-860.37 399.16,-863.63"/>
<polygon fill="#8b0000" stroke="#8b0000" points="398.83,-866.08 405.86,-863.73 398.9,-861.18 398.83,-866.08"/>
<text text-anchor="middle" x="265.62" y="-833.57" font-family="Arial" font-size="9.00"> &#160;session</text>
</g>
<!-- schedule&#45;&gt;subject -->
<g id="edge3" class="edge">
<title>schedule:subject&#45;&gt;subject:id</title>
<path fill="none" stroke="#8b0000" d="M536.12,-844.25C641.93,-844.25 670.47,-844.49 772.2,-844.5"/>
<polygon fill="#8b0000" stroke="#8b0000" points="772.11,-846.95 779.11,-844.5 772.11,-842.05 772.11,-846.95"/>
<text text-anchor="middle" x="677.88" y="-846.4" font-family="Arial" font-size="9.00"> &#160;covers</text>
</g>
<!-- schedule&#45;&gt;class -->
<g id="edge2" class="edge">
<title>schedule:classroom&#45;&gt;class:id</title>
<path fill="none" stroke="#8b0000" d="M536.12,-824.75C700.94,-824.75 609.08,-541.4 765.37,-531.99"/>
<polygon fill="#8b0000" stroke="#8b0000" points="765.06,-534.45 771.99,-531.79 764.92,-529.55 765.06,-534.45"/>
<text text-anchor="middle" x="677.88" y="-680.2" font-family="Arial" font-size="9.00"> &#160;uses room</text>
</g>
<!-- exam -->
<g id="node11" class="node">
<title>exam</title>
<polygon fill="white" stroke="none" points="407.38,-284 407.38,-442 536.12,-442 536.12,-284 407.38,-284"/>
<polygon fill="#8b0000" stroke="none" points="408.38,-421.5 408.38,-441 535.12,-441 535.12,-421.5 408.38,-421.5"/>
<polygon fill="none" stroke="black" points="408.38,-421.5 408.38,-441 535.12,-441 535.12,-421.5 408.38,-421.5"/>
<text text-anchor="start" x="457.88" y="-428.55" font-family="Arial" font-weight="bold" font-size="11.00" fill="white">exam</text>
<polygon fill="none" stroke="black" points="408.38,-402 408.38,-421.5 535.12,-421.5 535.12,-402 408.38,-402"/>
<text text-anchor="start" x="411.38" y="-409.05" font-family="Arial" font-weight="bold" font-size="11.00">id</text>
<text text-anchor="start" x="421.12" y="-409.05" font-family="Arial" font-size="11.00"> &#160;INT (PK)</text>
<polygon fill="none" stroke="black" points="408.38,-382.5 408.38,-402 535.12,-402 535.12,-382.5 408.38,-382.5"/>
<text text-anchor="start" x="411.38" y="-388.55" font-family="Arial" font-size="11.00">subject &#160;VARCHAR(100)</text>
<polygon fill="none" stroke="black" points="408.38,-363 408.38,-382.5 535.12,-382.5 535.12,-363 408.38,-363"/>
<text text-anchor="start" x="411.38" y="-369.05" font-family="Arial" font-size="11.00">classroom &#160;INT (FK)</text>
<polygon fill="none" stroke="black" points="408.38,-343.5 408.38,-363 535.12,-363 535.12,-343.5 408.38,-343.5"/>
<text text-anchor="start" x="411.38" y="-349.55" font-family="Arial" font-size="11.00">date &#160;DATE</text>
<polygon fill="none" stroke="black" points="408.38,-324 408.38,-343.5 535.12,-343.5 535.12,-324 408.38,-324"/>
<text text-anchor="start" x="411.38" y="-330.05" font-family="Arial" font-size="11.00">start_time &#160;TIME</text>
<polygon fill="none" stroke="black" points="408.38,-304.5 408.38,-324 535.12,-324 535.12,-304.5 408.38,-304.5"/>
<text text-anchor="start" x="411.38" y="-310.55" font-family="Arial" font-size="11.00">end_time &#160;TIME</text>
<polygon fill="none" stroke="black" points="408.38,-285 408.38,-304.5 535.12,-304.5 535.12,-285 408.38,-285"/>
<text text-anchor="start" x="411.38" y="-291.05" font-family="Arial" font-size="11.00">created_at &#160;TIMESTAMP</text>
<polygon fill="none" stroke="black" points="407.38,-284 407.38,-442 536.12,-442 536.12,-284 407.38,-284"/>
</g>
<!-- exam&#45;&gt;class -->
<g id="edge6" class="edge">
<title>exam:classroom&#45;&gt;class:id</title>
<path fill="none" stroke="#8b0000" d="M536.12,-372.75C596.89,-372.75 700.61,-518.38 765.06,-530.89"/>
<polygon fill="#8b0000" stroke="#8b0000" points="764.78,-533.33 771.99,-531.6 765.28,-528.45 764.78,-533.33"/>
<text text-anchor="middle" x="677.88" y="-495.28" font-family="Arial" font-size="9.00"> &#160;held in</text>
</g>
<!-- examresult -->
<g id="node12" class="node">
<title>examresult</title>
<polygon fill="white" stroke="none" points="20.25,-1369.75 20.25,-1508.25 149.75,-1508.25 149.75,-1369.75 20.25,-1369.75"/>
<polygon fill="#8b0000" stroke="none" points="21.25,-1487.75 21.25,-1507.25 148.75,-1507.25 148.75,-1487.75 21.25,-1487.75"/>
<polygon fill="none" stroke="black" points="21.25,-1487.75 21.25,-1507.25 148.75,-1507.25 148.75,-1487.75 21.25,-1487.75"/>
<text text-anchor="start" x="56.12" y="-1494.8" font-family="Arial" font-weight="bold" font-size="11.00" fill="white">examresult</text>
<polygon fill="none" stroke="black" points="21.25,-1468.25 21.25,-1487.75 148.75,-1487.75 148.75,-1468.25 21.25,-1468.25"/>
<text text-anchor="start" x="24.25" y="-1475.3" font-family="Arial" font-weight="bold" font-size="11.00">id</text>
<text text-anchor="start" x="34" y="-1475.3" font-family="Arial" font-size="11.00"> &#160;INT (PK)</text>
<polygon fill="none" stroke="black" points="21.25,-1448.75 21.25,-1468.25 148.75,-1468.25 148.75,-1448.75 21.25,-1448.75"/>
<text text-anchor="start" x="24.25" y="-1454.8" font-family="Arial" font-size="11.00">student &#160;VARCHAR(100)</text>
<polygon fill="none" stroke="black" points="21.25,-1429.25 21.25,-1448.75 148.75,-1448.75 148.75,-1429.25 21.25,-1429.25"/>
<text text-anchor="start" x="24.25" y="-1435.3" font-family="Arial" font-size="11.00">subject &#160;VARCHAR(100)</text>
<polygon fill="none" stroke="black" points="21.25,-1409.75 21.25,-1429.25 148.75,-1429.25 148.75,-1409.75 21.25,-1409.75"/>
<text text-anchor="start" x="24.25" y="-1415.8" font-family="Arial" font-size="11.00">marks &#160;VARCHAR(20)</text>
<polygon fill="none" stroke="black" points="21.25,-1390.25 21.25,-1409.75 148.75,-1409.75 148.75,-1390.25 21.25,-1390.25"/>
<text text-anchor="start" x="24.25" y="-1396.3" font-family="Arial" font-size="11.00">grade &#160;VARCHAR(10)</text>
<polygon fill="none" stroke="black" points="21.25,-1370.75 21.25,-1390.25 148.75,-1390.25 148.75,-1370.75 21.25,-1370.75"/>
<text text-anchor="start" x="24.25" y="-1376.8" font-family="Arial" font-size="11.00">created_at &#160;TIMESTAMP</text>
<polygon fill="none" stroke="black" points="20.25,-1369.75 20.25,-1508.25 149.75,-1508.25 149.75,-1369.75 20.25,-1369.75"/>
</g>
<!-- notice -->
<g id="node13" class="node">
<title>notice</title>
<polygon fill="white" stroke="none" points="12.38,-96.5 12.38,-215.5 157.62,-215.5 157.62,-96.5 12.38,-96.5"/>
<polygon fill="#8b0000" stroke="none" points="13.38,-195 13.38,-214.5 156.62,-214.5 156.62,-195 13.38,-195"/>
<polygon fill="none" stroke="black" points="13.38,-195 13.38,-214.5 156.62,-214.5 156.62,-195 13.38,-195"/>
<text text-anchor="start" x="68.88" y="-202.05" font-family="Arial" font-weight="bold" font-size="11.00" fill="white">notice</text>
<polygon fill="none" stroke="black" points="13.38,-175.5 13.38,-195 156.62,-195 156.62,-175.5 13.38,-175.5"/>
<text text-anchor="start" x="16.38" y="-182.55" font-family="Arial" font-weight="bold" font-size="11.00">id</text>
<text text-anchor="start" x="26.12" y="-182.55" font-family="Arial" font-size="11.00"> &#160;INT (PK)</text>
<polygon fill="none" stroke="black" points="13.38,-156 13.38,-175.5 156.62,-175.5 156.62,-156 13.38,-156"/>
<text text-anchor="start" x="16.38" y="-162.05" font-family="Arial" font-size="11.00">notice_title &#160;VARCHAR(100)</text>
<polygon fill="none" stroke="black" points="13.38,-136.5 13.38,-156 156.62,-156 156.62,-136.5 13.38,-136.5"/>
<text text-anchor="start" x="16.38" y="-142.55" font-family="Arial" font-size="11.00">notice_body &#160;TEXT</text>
<polygon fill="none" stroke="black" points="13.38,-117 13.38,-136.5 156.62,-136.5 156.62,-117 13.38,-117"/>
<text text-anchor="start" x="16.38" y="-123.05" font-family="Arial" font-size="11.00">user &#160;VARCHAR(100) (FK)</text>
<polygon fill="none" stroke="black" points="13.38,-97.5 13.38,-117 156.62,-117 156.62,-97.5 13.38,-97.5"/>
<text text-anchor="start" x="16.38" y="-103.55" font-family="Arial" font-size="11.00">created_at &#160;TIMESTAMP</text>
<polygon fill="none" stroke="black" points="12.38,-96.5 12.38,-215.5 157.62,-215.5 157.62,-96.5 12.38,-96.5"/>
</g>
<!-- notice&#45;&gt;users -->
<g id="edge7" class="edge">
<title>notice:user&#45;&gt;users:user_id</title>
<path fill="none" stroke="#8b0000" d="M157.62,-126.75C245.3,-126.75 269.27,-127.69 352.96,-127.75"/>
<polygon fill="#8b0000" stroke="#8b0000" points="352.74,-130.2 359.74,-127.75 352.74,-125.3 352.74,-130.2"/>
<text text-anchor="middle" x="265.62" y="-129.43" font-family="Arial" font-size="9.00"> &#160;posted by</text>
</g>
</g>
</svg>
